<svg width="7" height="12" viewBox="0 0 7 12" fill="none" xmlns="http://www.w3.org/2000/svg">
<path d="M0.19006 5.53176L5.49242 0.191706C5.61505 0.0680969 5.77876 -1.06764e-07 5.95332 -9.15034e-08C6.12788 -7.6243e-08 6.29159 0.068097 6.41423 0.191706L6.80471 0.584873C7.0588 0.841066 7.0588 1.25745 6.80471 1.51326L2.35219 5.99751L6.80965 10.4867C6.93229 10.6104 7 10.7751 7 10.9508C7 11.1267 6.93229 11.2915 6.80965 11.4152L6.41917 11.8083C6.29643 11.9319 6.13282 12 5.95826 12C5.7837 12 5.61999 11.9319 5.49736 11.8083L0.19006 6.46336C0.0671319 6.33936 -0.000385824 6.1738 1.85984e-06 5.9978C-0.000385793 5.82112 0.067132 5.65566 0.19006 5.53176Z" fill="white"/>
</svg>
