<svg width="7" height="12" viewBox="0 0 7 12" fill="none" xmlns="http://www.w3.org/2000/svg">
  <path
    d="M6.80994 6.46824L1.50758 11.8083C1.38495 11.9319 1.22124 12 1.04668 12C0.872118 12 0.708408 11.9319 0.585771 11.8083L0.195289 11.4151C-0.0587997 11.1589 -0.0587997 10.7425 0.19529 10.4867L4.64781 6.00249L0.19035 1.51326C0.0677129 1.38965 9.41992e-07 1.22487 9.57353e-07 1.04916C9.7273e-07 0.873261 0.0677129 0.708482 0.19035 0.584775L0.580832 0.191706C0.703566 0.0680972 0.867179 7.58111e-08 1.04174 9.10715e-08C1.2163 1.06332e-07 1.38001 0.0680972 1.50264 0.191706L6.80994 5.53664C6.93287 5.66064 7.00039 5.8262 7 6.0022C7.00039 6.17888 6.93287 6.34434 6.80994 6.46824Z"
    fill="white"/>
</svg>
